<?xml version="1.0" encoding="UTF-8"?>
<svg id="Layer_2" xmlns="http://www.w3.org/2000/svg" xmlns:xlink="http://www.w3.org/1999/xlink" viewBox="0 0 2058.51 645.03">
  <defs>
    <style>
      .cls-1 {
        fill: url(#linear-gradient-2);
      }

      .cls-2 {
        letter-spacing: 0em;
      }

      .cls-3 {
        letter-spacing: .12em;
      }

      .cls-4 {
        letter-spacing: .13em;
      }

      .cls-5 {
        font-size: 229.97px;
      }

      .cls-5, .cls-6 {
        fill: #fff;
        font-family: Newton-Regular, Newton;
      }

      .cls-7 {
        letter-spacing: .03em;
      }

      .cls-8 {
        letter-spacing: .13em;
      }

      .cls-9 {
        letter-spacing: .03em;
      }

      .cls-10 {
        letter-spacing: .16em;
      }

      .cls-11 {
        letter-spacing: .15em;
      }

      .cls-12 {
        letter-spacing: .13em;
      }

      .cls-13 {
        letter-spacing: .02em;
      }

      .cls-14 {
        letter-spacing: .01em;
      }

      .cls-6 {
        font-size: 114.99px;
      }

      .cls-15 {
        letter-spacing: .13em;
      }

      .cls-16 {
        letter-spacing: 0em;
      }

      .cls-17 {
        letter-spacing: .01em;
      }

      .cls-18 {
        fill: url(#linear-gradient);
      }

      .cls-19 {
        letter-spacing: .14em;
      }
    </style>
    <linearGradient id="linear-gradient" x1="553.65" y1="234.63" x2="553.65" y2="48" gradientUnits="userSpaceOnUse">
      <stop offset="0" stop-color="#735d23"/>
      <stop offset=".01" stop-color="#7c6731"/>
      <stop offset=".05" stop-color="#9e8f67"/>
      <stop offset=".09" stop-color="#bcb195"/>
      <stop offset=".14" stop-color="#d4cdbb"/>
      <stop offset=".18" stop-color="#e6e3d9"/>
      <stop offset=".22" stop-color="#f4f2ee"/>
      <stop offset=".26" stop-color="#fcfbfa"/>
      <stop offset=".3" stop-color="#fff"/>
      <stop offset=".37" stop-color="#e5decb"/>
      <stop offset=".46" stop-color="#cbbe98"/>
      <stop offset=".55" stop-color="#b6a36d"/>
      <stop offset=".63" stop-color="#a58e4c"/>
      <stop offset=".71" stop-color="#997f34"/>
      <stop offset=".78" stop-color="#927625"/>
      <stop offset=".84" stop-color="#907321"/>
      <stop offset="1" stop-color="#796222"/>
    </linearGradient>
    <linearGradient id="linear-gradient-2" x1="346.07" y1="634.4" x2="346.07" y2="17.65" gradientUnits="userSpaceOnUse">
      <stop offset="0" stop-color="#735d23"/>
      <stop offset=".05" stop-color="#7f6622"/>
      <stop offset=".12" stop-color="#8b6f21"/>
      <stop offset=".19" stop-color="#907321"/>
      <stop offset=".31" stop-color="#8c7021"/>
      <stop offset=".41" stop-color="#826821"/>
      <stop offset=".49" stop-color="#735d23"/>
      <stop offset=".51" stop-color="#776229"/>
      <stop offset=".55" stop-color="#83703d"/>
      <stop offset=".59" stop-color="#98885d"/>
      <stop offset=".64" stop-color="#b4a889"/>
      <stop offset=".7" stop-color="#d8d2c2"/>
      <stop offset=".75" stop-color="#fff"/>
      <stop offset=".75" stop-color="#f2efe6"/>
      <stop offset=".77" stop-color="#ded5bd"/>
      <stop offset=".78" stop-color="#cbbe98"/>
      <stop offset=".79" stop-color="#bba977"/>
      <stop offset=".81" stop-color="#ad985c"/>
      <stop offset=".82" stop-color="#a28a46"/>
      <stop offset=".84" stop-color="#9a7f35"/>
      <stop offset=".87" stop-color="#947829"/>
      <stop offset=".9" stop-color="#907422"/>
      <stop offset="1" stop-color="#907321"/>
    </linearGradient>
  </defs>
  <g id="Layer_1-2" data-name="Layer_1">
    <text class="cls-5" transform="translate(724.68 224.6)"><tspan class="cls-17" x="0" y="0">F</tspan><tspan class="cls-2" x="151.09" y="0">O</tspan><tspan class="cls-7" x="328.17" y="0">REI</tspan><tspan class="cls-16" x="761.21" y="0">G</tspan><tspan class="cls-7" x="954.62" y="0">N</tspan><tspan class="cls-7" x="0" y="237.16">B</tspan><tspan class="cls-14" x="162.36" y="237.16">R</tspan><tspan class="cls-13" x="332.31" y="237.16">O</tspan><tspan class="cls-9" x="513.3" y="237.16">THERS</tspan></text>
    <text class="cls-6" transform="translate(742.92 593.92)"><tspan class="cls-19" x="0" y="0">R</tspan><tspan class="cls-12" x="99.12" y="0">e</tspan><tspan class="cls-19" x="166.73" y="0">al E</tspan><tspan class="cls-11" x="417.51" y="0">s</tspan><tspan class="cls-4" x="476.27" y="0">t</tspan><tspan class="cls-8" x="526.86" y="0">a</tspan><tspan class="cls-4" x="595.74" y="0">t</tspan><tspan class="cls-19" x="646.34" y="0">e B</tspan><tspan class="cls-15" x="850.43" y="0">r</tspan><tspan class="cls-19" x="906.55" y="0">o</tspan><tspan class="cls-3" x="983.59" y="0">ke</tspan><tspan class="cls-10" x="1121" y="0">r</tspan><tspan class="cls-19" x="1180.44" y="0">s</tspan></text>
    <g>
      <path class="cls-18" d="M628.34,47.49c-.24-1.45-.48-2.1-.95-2.69-.75-.95-1.78-1.36-2.37-1.58-1.11-.42-2.04-.46-2.69-.47-2.84-.08-4.26-.12-5.37,0h-126.61c-1.11-.12-2.53-.08-5.37,0-.65.02-1.58.05-2.69.47-.6.23-1.62.63-2.37,1.58-.47.59-.71,1.24-.95,2.69-.29,1.72-.34,3.15-.32,5.54.03,3.79.19,4.27.47,4.75.95,1.6,2.68,2.21,3.16,2.37,1.74.61,2.29-.03,4.91.47,1.21.24,2.22.43,3.16,1.11,1.62,1.16,2.13,3.09,2.37,4.27,1.4,6.69.46,17.79.32,26.11-.03,1.61-.02,3.55,0,7.44.03,6.49.14,11.23.16,12.34.26,13.08-.16,38.93-.16,38.93-.21,13.07-.34,37.52,0,87.03,20.2-15.14,40.4-30.28,60.6-45.42,20.2,15.14,40.4,30.28,60.6,45.42.34-49.51.21-73.96,0-87.03,0,0-.42-25.85-.16-38.93.02-1.11.13-5.85.16-12.34.02-3.89.03-5.83,0-7.44-.15-8.32-1.09-19.42.32-26.11.25-1.18.76-3.11,2.37-4.27.94-.68,1.95-.87,3.16-1.11,2.61-.51,3.16.13,4.91-.47.48-.17,2.22-.77,3.16-2.37.28-.48.44-.96.47-4.75.02-2.39-.03-3.82-.32-5.54Z"/>
      <path class="cls-1" d="M611.43,434.84c-13.93-17.66-32.03-24.76-40.83-27.53,7.82-3.53,28.42-14.1,42.17-37.9,18.39-31.83,10.84-63.66,9.1-70.34,23.42-.63,46.84-1.27,70.26-1.9L352.24,0C234.83,100.01,117.41,200.01,0,300.02c25,.63,49.99,1.26,74.99,1.9v342.7h94.96c.63-60.45,1.27-136.99,1.9-197.44,26.9.63,53.8,1.27,80.7,1.9,19.94-25.63,39.88-51.27,59.81-76.9-46.52-.95-93.04-1.9-139.57-2.85-.63-30.07-1.27-60.13-1.9-90.2,59.5-57.6,119-115.2,178.49-172.8,63.3,58.86,125.98,121.52,189.28,180.38-.46,17.39-.87,32.36-1.13,41.79-.56,20.44-.92,30.74-4.7,35.07-7.14,8.17-18.72,6.65-55.27,5.76-19.31-.47-35.12-.51-45.59-.47-.31-48.26-.62-96.53-.93-144.79-30.07-22.47-60.13-44.94-90.2-67.41-1.58,161.09-3.16,322.17-4.75,483.26,30.18,2.02,55.72,3.18,78.14,3.85,39.96,1.2,58.71,1.56,76.77,1.01,42.68-1.3,64.4-2.16,83.11-12.14,6.93-3.7,28.92-16.44,43.32-42.37,10.58-19.05,11.91-35.93,13.93-61.44,1.18-14.9,2.44-32.31-2.85-54.12-3.11-12.82-6.38-26.31-17.09-39.88ZM539.08,532.12c-3.13,8.98-7.43,12.96-8.85,14.19-3.32,2.87-6.73,4.35-9.5,5.53-6.52,2.77-12.09,3.5-15.11,3.85-1.72.2-4.63.42-10.46.8-2.34.15-5.77.37-10.21.57-1.8.08-6.45.27-15.53.39-10.29.14-14.89.04-18.76-.13-9.81-.41-12.46-1.11-14.65-3.12-2.86-2.63-3.66-6.33-3.91-8.67-.04-1.18-.29-8.35-.33-9.55-.14-4.07-.18-5.09-.19-5.4-.23-6.94-.18-13.41-.14-22.32.04-9.45.07-14.18.05-14.94-.25-8.32-.04-16.64-.07-24.96-.01-3.05-.03-6.39,2.17-9.36,2.13-2.89,5.3-4.01,7.28-4.68,1.87-.64,2.84-.69,11.83-.93,0,0,12.33-.33,18.71.13,0,0,0,0,.01,0,.02,0,.05,0,.1,0,.04,0,.08,0,.21,0,.15,0,13.33-.05,26.21.44,8.25.31,12.38.47,13.44.71,15.24,3.41,23.92,19.39,26.16,23.51,0,0,12.4,22.83,1.54,53.94Z"/>
    </g>
  </g>
</svg>